{
  "accessors": [
    {
      "bufferView": 2,
      "componentType": 5126,
      "count": 65532,
      "max": [
        0.048850998282432556,
        0.43422499299049377,
        0.20858700573444366
      ],
      "min": [
        -0.19961799681186676,
        -0.465923011302948,
        -0.091787002980709076
      ],
      "type": "VEC3"
    },
    {
      "bufferView": 2,
      "byteOffset": 786384,
      "componentType": 5126,
      "count": 65532,
      "max": [
        0.99999511241912842,
        1,
        0.9999995231628418
      ],
      "min": [
        -0.99999344348907471,
        -1,
        -0.99998056888580322
      ],
      "type": "VEC3"
    },
    {
      "bufferView": 3,
      "componentType": 5126,
      "count": 65532,
      "max": [
        0.99771267175674438,
        0.99998259544372559,
        0.99944233894348145,
        1
      ],
      "min": [
        -0.99951696395874023,
        -0.99998641014099121,
        -0.99954831600189209,
        -1
      ],
      "type": "VEC4"
    },
    {
      "bufferView": 3,
      "byteOffset": 1048512,
      "componentType": 5126,
      "count": 65532,
      "max": [
        0.75294119119644165,
        0.75294119119644165,
        0.75294119119644165,
        1
      ],
      "min": [
        0.75294119119644165,
        0.75294119119644165,
        0.75294119119644165,
        1
      ],
      "type": "VEC4"
    },
    {
      "bufferView": 1,
      "componentType": 5126,
      "count": 65532,
      "max": [
        0.78909701108932495,
        0.96971797943115234
      ],
      "min": [
        0.0070030000060796738,
        0.023696999996900558
      ],
      "type": "VEC2"
    },
    {
      "bufferView": 0,
      "componentType": 5125,
      "count": 357642,
      "max": [
        65531
      ],
      "min": [
        0
      ],
      "type": "SCALAR"
    },
    {
      "bufferView": 2,
      "byteOffset": 1572768,
      "componentType": 5126,
      "count": 65532,
      "max": [
        0.32197299599647522,
        0.43422499299049377,
        0.25264298915863037
      ],
      "min": [
        -0.20386700332164764,
        -0.64244598150253296,
        -0.047642000019550323
      ],
      "type": "VEC3"
    },
    {
      "bufferView": 2,
      "byteOffset": 2359152,
      "componentType": 5126,
      "count": 65532,
      "max": [
        0.99999743700027466,
        1,
        0.99999547004699707
      ],
      "min": [
        -0.99997395277023315,
        -1,
        -0.99997878074645996
      ],
      "type": "VEC3"
    },
    {
      "bufferView": 3,
      "byteOffset": 2097024,
      "componentType": 5126,
      "count": 65532,
      "max": [
        0.99992889165878296,
        0.99998241662979126,
        1,
        1
      ],
      "min": [
        -1,
        -0.99997729063034058,
        -1,
        -1
      ],
      "type": "VEC4"
    },
    {
      "bufferView": 3,
      "byteOffset": 3145536,
      "componentType": 5126,
      "count": 65532,
      "max": [
        0.75294119119644165,
        0.75294119119644165,
        0.75294119119644165,
        1
      ],
      "min": [
        0.75294119119644165,
        0.75294119119644165,
        0.75294119119644165,
        1
      ],
      "type": "VEC4"
    },
    {
      "bufferView": 1,
      "byteOffset": 524256,
      "componentType": 5126,
      "count": 65532,
      "max": [
        0.71533602476119995,
        0.99246400594711304
      ],
      "min": [
        0.0088969999924302101,
        0.018957000225782394
      ],
      "type": "VEC2"
    },
    {
      "bufferView": 0,
      "byteOffset": 1430568,
      "componentType": 5125,
      "count": 337926,
      "max": [
        65531
      ],
      "min": [
        0
      ],
      "type": "SCALAR"
    },
    {
      "bufferView": 2,
      "byteOffset": 3145536,
      "componentType": 5126,
      "count": 65532,
      "max": [
        0.32983499765396118,
        0.14817500114440918,
        0.21280099451541901
      ],
      "min": [
        -0.032566998153924942,
        -0.58456897735595703,
        -0.045960001647472382
      ],
      "type": "VEC3"
    },
    {
      "bufferView": 2,
      "byteOffset": 3931920,
      "componentType": 5126,
      "count": 65532,
      "max": [
        0.99999922513961792,
        0.99998289346694946,
        0.99995702505111694
      ],
      "min": [
        -0.99997395277023315,
        -1,
        -0.99996525049209595
      ],
      "type": "VEC3"
    },
    {
      "bufferView": 3,
      "byteOffset": 4194048,
      "componentType": 5126,
      "count": 65532,
      "max": [
        0.99976044893264771,
        0.99999171495437622,
        0.99994426965713501,
        1
      ],
      "min": [
        -0.99973595142364502,
        -0.9999840259552002,
        -0.99991518259048462,
        -1
      ],
      "type": "VEC4"
    },
    {
      "bufferView": 3,
      "byteOffset": 5242560,
      "componentType": 5126,
      "count": 65532,
      "max": [
        0.75294119119644165,
        0.75294119119644165,
        0.75294119119644165,
        1
      ],
      "min": [
        0.75294119119644165,
        0.75294119119644165,
        0.75294119119644165,
        1
      ],
      "type": "VEC4"
    },
    {
      "bufferView": 1,
      "byteOffset": 1048512,
      "componentType": 5126,
      "count": 65532,
      "max": [
        0.77754998207092285,
        0.88587898015975952
      ],
      "min": [
        0.005053000058978796,
        0.0095870001241564751
      ],
      "type": "VEC2"
    },
    {
      "bufferView": 0,
      "byteOffset": 2782272,
      "componentType": 5125,
      "count": 337398,
      "max": [
        65531
      ],
      "min": [
        0
      ],
      "type": "SCALAR"
    },
    {
      "bufferView": 2,
      "byteOffset": 4718304,
      "componentType": 5126,
      "count": 65532,
      "max": [
        0.35554999113082886,
        -0.17088699340820312,
        0.21758300065994263
      ],
      "min": [
        -0.20411099493503571,
        -1.0963300466537476,
        -0.051628999412059784
      ],
      "type": "VEC3"
    },
    {
      "bufferView": 2,
      "byteOffset": 5504688,
      "componentType": 5126,
      "count": 65532,
      "max": [
        0.99999481439590454,
        1,
        0.99997186660766602
      ],
      "min": [
        -0.99999648332595825,
        -0.99594777822494507,
        -0.99999892711639404
      ],
      "type": "VEC3"
    },
    {
      "bufferView": 3,
      "byteOffset": 6291072,
      "componentType": 5126,
      "count": 65532,
      "max": [
        0.99972110986709595,
        0.9999656081199646,
        0.99990129470825195,
        1
      ],
      "min": [
        -0.9999268651008606,
        -0.99999368190765381,
        -0.9997023344039917,
        -1
      ],
      "type": "VEC4"
    },
    {
      "bufferView": 3,
      "byteOffset": 7339584,
      "componentType": 5126,
      "count": 65532,
      "max": [
        0.75294119119644165,
        0.75294119119644165,
        0.75294119119644165,
        1
      ],
      "min": [
        0.75294119119644165,
        0.75294119119644165,
        0.75294119119644165,
        1
      ],
      "type": "VEC4"
    },
    {
      "bufferView": 1,
      "byteOffset": 1572768,
      "componentType": 5126,
      "count": 65532,
      "max": [
        0.78757601976394653,
        0.98448401689529419
      ],
      "min": [
        0.00559999980032444,
        0.009432000108063221
      ],
      "type": "VEC2"
    },
    {
      "bufferView": 0,
      "byteOffset": 4131864,
      "componentType": 5125,
      "count": 314859,
      "max": [
        65531
      ],
      "min": [
        0
      ],
      "type": "SCALAR"
    },
    {
      "bufferView": 2,
      "byteOffset": 6291072,
      "componentType": 5126,
      "count": 65532,
      "max": [
        0.34907799959182739,
        -0.42724999785423279,
        0.21758300065994263
      ],
      "min": [
        -0.20329700410366058,
        -1.3599599599838257,
        -0.045081999152898788
      ],
      "type": "VEC3"
    },
    {
      "bufferView": 2,
      "byteOffset": 7077456,
      "componentType": 5126,
      "count": 65532,
      "max": [
        0.9999811053276062,
        0.99998444318771362,
        0.99997931718826294
      ],
      "min": [
        -0.99999260902404785,
        -1,
        -0.99981123208999634
      ],
      "type": "VEC3"
    },
    {
      "bufferView": 3,
      "byteOffset": 8388096,
      "componentType": 5126,
      "count": 65532,
      "max": [
        0.99977272748947144,
        0.99998229742050171,
        0.99997425079345703,
        1
      ],
      "min": [
        -0.99356788396835327,
        -0.99997097253799438,
        -0.99923080205917358,
        -1
      ],
      "type": "VEC4"
    },
    {
      "bufferView": 3,
      "byteOffset": 9436608,
      "componentType": 5126,
      "count": 65532,
      "max": [
        0.75294119119644165,
        0.75294119119644165,
        0.75294119119644165,
        1
      ],
      "min": [
        0.75294119119644165,
        0.75294119119644165,
        0.75294119119644165,
        1
      ],
      "type": "VEC4"
    },
    {
      "bufferView": 1,
      "byteOffset": 2097024,
      "componentType": 5126,
      "count": 65532,
      "max": [
        0.7713170051574707,
        0.97499698400497437
      ],
      "min": [
        0.031221000477671623,
        0.0099969999864697456
      ],
      "type": "VEC2"
    },
    {
      "bufferView": 0,
      "byteOffset": 5391300,
      "componentType": 5125,
      "count": 338082,
      "max": [
        65531
      ],
      "min": [
        0
      ],
      "type": "SCALAR"
    },
    {
      "bufferView": 2,
      "byteOffset": 7863840,
      "componentType": 5126,
      "count": 65532,
      "max": [
        0.34907600283622742,
        0.43422499299049377,
        0.21745100617408752
      ],
      "min": [
        -0.10614000260829926,
        -1.3597949743270874,
        -0.093130998313426971
      ],
      "type": "VEC3"
    },
    {
      "bufferView": 2,
      "byteOffset": 8650224,
      "componentType": 5126,
      "count": 65532,
      "max": [
        0.99999433755874634,
        1,
        1
      ],
      "min": [
        -0.99987053871154785,
        -1,
        -0.99998700618743896
      ],
      "type": "VEC3"
    },
    {
      "bufferView": 3,
      "byteOffset": 10485120,
      "componentType": 5126,
      "count": 65532,
      "max": [
        0.99977272748947144,
        0.99999183416366577,
        0.99997425079345703,
        1
      ],
      "min": [
        -0.99999785423278809,
        -0.99996620416641235,
        -0.99998176097869873,
        -1
      ],
      "type": "VEC4"
    },
    {
      "bufferView": 3,
      "byteOffset": 11533632,
      "componentType": 5126,
      "count": 65532,
      "max": [
        0.75294119119644165,
        0.75294119119644165,
        0.75294119119644165,
        1
      ],
      "min": [
        0.75294119119644165,
        0.75294119119644165,
        0.75294119119644165,
        1
      ],
      "type": "VEC4"
    },
    {
      "bufferView": 1,
      "byteOffset": 2621280,
      "componentType": 5126,
      "count": 65532,
      "max": [
        0.78965902328491211,
        0.92883902788162231
      ],
      "min": [
        0.0092850001528859138,
        0.014217999763786793
      ],
      "type": "VEC2"
    },
    {
      "bufferView": 0,
      "byteOffset": 6743628,
      "componentType": 5125,
      "count": 307275,
      "max": [
        65531
      ],
      "min": [
        0
      ],
      "type": "SCALAR"
    },
    {
      "bufferView": 2,
      "byteOffset": 9436608,
      "componentType": 5126,
      "count": 65532,
      "max": [
        0.34598401188850403,
        0.43422499299049377,
        0.059273999184370041
      ],
      "min": [
        -0.20210899412631989,
        -1.325037956237793,
        -0.083673998713493347
      ],
      "type": "VEC3"
    },
    {
      "bufferView": 2,
      "byteOffset": 10222992,
      "componentType": 5126,
      "count": 65532,
      "max": [
        0.99998801946640015,
        0.99995487928390503,
        0.99539262056350708
      ],
      "min": [
        -0.99998843669891357,
        -1,
        -0.99999850988388062
      ],
      "type": "VEC3"
    },
    {
      "bufferView": 3,
      "byteOffset": 12582144,
      "componentType": 5126,
      "count": 65532,
      "max": [
        0.99807947874069214,
        0.99989736080169678,
        0.99993622303009033,
        1
      ],
      "min": [
        -1,
        -0.99943530559539795,
        -0.99968880414962769,
        -1
      ],
      "type": "VEC4"
    },
    {
      "bufferView": 3,
      "byteOffset": 13630656,
      "componentType": 5126,
      "count": 65532,
      "max": [
        0.75294119119644165,
        0.75294119119644165,
        0.75294119119644165,
        1
      ],
      "min": [
        0.75294119119644165,
        0.75294119119644165,
        0.75294119119644165,
        1
      ],
      "type": "VEC4"
    },
    {
      "bufferView": 1,
      "byteOffset": 3145536,
      "componentType": 5126,
      "count": 65532,
      "max": [
        0.77271497249603271,
        0.92392998933792114
      ],
      "min": [
        0.0091399997472763062,
        0.0047389999963343143
      ],
      "type": "VEC2"
    },
    {
      "bufferView": 0,
      "byteOffset": 7972728,
      "componentType": 5125,
      "count": 306780,
      "max": [
        65531
      ],
      "min": [
        0
      ],
      "type": "SCALAR"
    },
    {
      "bufferView": 2,
      "byteOffset": 11009376,
      "componentType": 5126,
      "count": 5540,
      "max": [
        0.32197299599647522,
        0.43422499299049377,
        0.25264298915863037
      ],
      "min": [
        -0.1708810031414032,
        -1.3532099723815918,
        -0.053004998713731766
      ],
      "type": "VEC3"
    },
    {
      "bufferView": 2,
      "byteOffset": 11075856,
      "componentType": 5126,
      "count": 5540,
      "max": [
        1,
        1,
        0.99480414390563965
      ],
      "min": [
        -0.9998859167098999,
        -1,
        -0.99972325563430786
      ],
      "type": "VEC3"
    },
    {
      "bufferView": 3,
      "byteOffset": 14679168,
      "componentType": 5126,
      "count": 5540,
      "max": [
        1,
        0.99990242719650269,
        1,
        1
      ],
      "min": [
        -0.99999880790710449,
        -0.99989479780197144,
        -1,
        -1
      ],
      "type": "VEC4"
    },
    {
      "bufferView": 3,
      "byteOffset": 14767808,
      "componentType": 5126,
      "count": 5540,
      "max": [
        0.75294119119644165,
        0.75294119119644165,
        0.75294119119644165,
        1
      ],
      "min": [
        0.75294119119644165,
        0.75294119119644165,
        0.75294119119644165,
        1
      ],
      "type": "VEC4"
    },
    {
      "bufferView": 1,
      "byteOffset": 3669792,
      "componentType": 5126,
      "count": 5540,
      "max": [
        0.78627300262451172,
        0.89280897378921509
      ],
      "min": [
        0.0088069997727870941,
        0.0047389999963343143
      ],
      "type": "VEC2"
    },
    {
      "bufferView": 0,
      "byteOffset": 9199848,
      "componentType": 5125,
      "count": 15099,
      "max": [
        5539
      ],
      "min": [
        0
      ],
      "type": "SCALAR"
    }
  ],
  "asset": {
    "extras": {
      "author": "Occipital (https://sketchfab.com/occipital)",
      "license": "CC-BY-4.0 (http://creativecommons.org/licenses/by/4.0/)",
      "source": "https://sketchfab.com/models/e8eea25dc43e42ab9e4325b87e6bdd68",
      "title": "Body Scan with Structure Sensor"
    },
    "generator": "Sketchfab-3.30.3",
    "version": "2.0"
  },
  "bufferViews": [
    {
      "buffer": 0,
      "byteLength": 9260244,
      "byteOffset": 0,
      "name": "floatBufferViews",
      "target": 34963
    },
    {
      "buffer": 0,
      "byteLength": 3714112,
      "byteOffset": 9260244,
      "byteStride": 8,
      "name": "floatBufferViews",
      "target": 34962
    },
    {
      "buffer": 0,
      "byteLength": 11142336,
      "byteOffset": 12974356,
      "byteStride": 12,
      "name": "floatBufferViews",
      "target": 34962
    },
    {
      "buffer": 0,
      "byteLength": 14856448,
      "byteOffset": 24116692,
      "byteStride": 16,
      "name": "floatBufferViews",
      "target": 34962
    }
  ],
  "buffers": [
    {
      "byteLength": 38973140,
      "uri": "scene.bin"
    }
  ],
  "extensionsUsed": [
    "KHR_materials_unlit"
  ],
  "images": [
    {
      "uri": "textures/material_0_baseColor.png"
    }
  ],
  "materials": [
    {
      "doubleSided": true,
      "emissiveFactor": [
        0,
        0,
        0
      ],
      "extensions": {
        "KHR_materials_unlit": {}
      },
      "name": "material_0",
      "pbrMetallicRoughness": {
        "baseColorFactor": [
          1,
          1,
          1,
          1
        ],
        "baseColorTexture": {
          "index": 0,
          "texCoord": 0
        },
        "metallicFactor": 0,
        "roughnessFactor": 1
      }
    }
  ],
  "meshes": [
    {
      "primitives": [
        {
          "attributes": {
            "COLOR_0": 3,
            "NORMAL": 1,
            "POSITION": 0,
            "TANGENT": 2,
            "TEXCOORD_0": 4
          },
          "indices": 5,
          "material": 0,
          "mode": 4
        }
      ]
    },
    {
      "primitives": [
        {
          "attributes": {
            "COLOR_0": 9,
            "NORMAL": 7,
            "POSITION": 6,
            "TANGENT": 8,
            "TEXCOORD_0": 10
          },
          "indices": 11,
          "material": 0,
          "mode": 4
        }
      ]
    },
    {
      "primitives": [
        {
          "attributes": {
            "COLOR_0": 15,
            "NORMAL": 13,
            "POSITION": 12,
            "TANGENT": 14,
            "TEXCOORD_0": 16
          },
          "indices": 17,
          "material": 0,
          "mode": 4
        }
      ]
    },
    {
      "primitives": [
        {
          "attributes": {
            "COLOR_0": 21,
            "NORMAL": 19,
            "POSITION": 18,
            "TANGENT": 20,
            "TEXCOORD_0": 22
          },
          "indices": 23,
          "material": 0,
          "mode": 4
        }
      ]
    },
    {
      "primitives": [
        {
          "attributes": {
            "COLOR_0": 27,
            "NORMAL": 25,
            "POSITION": 24,
            "TANGENT": 26,
            "TEXCOORD_0": 28
          },
          "indices": 29,
          "material": 0,
          "mode": 4
        }
      ]
    },
    {
      "primitives": [
        {
          "attributes": {
            "COLOR_0": 33,
            "NORMAL": 31,
            "POSITION": 30,
            "TANGENT": 32,
            "TEXCOORD_0": 34
          },
          "indices": 35,
          "material": 0,
          "mode": 4
        }
      ]
    },
    {
      "primitives": [
        {
          "attributes": {
            "COLOR_0": 39,
            "NORMAL": 37,
            "POSITION": 36,
            "TANGENT": 38,
            "TEXCOORD_0": 40
          },
          "indices": 41,
          "material": 0,
          "mode": 4
        }
      ]
    },
    {
      "primitives": [
        {
          "attributes": {
            "COLOR_0": 45,
            "NORMAL": 43,
            "POSITION": 42,
            "TANGENT": 44,
            "TEXCOORD_0": 46
          },
          "indices": 47,
          "material": 0,
          "mode": 4
        }
      ]
    }
  ],
  "nodes": [
    {
      "children": [
        1
      ],
      "name": "RootNode (gltf orientation matrix)",
      "rotation": [
        -0.70710678118654746,
        -0,
        -0,
        0.70710678118654757
      ]
    },
    {
      "children": [
        2
      ],
      "matrix": [
        -1,
        0,
        0,
        0,
        0,
        0,
        -1,
        0,
        0,
        -1,
        0,
        0,
        0.1514386385679245,
        -0.38311219215393066,
        -0.38311219215393066,
        1
      ],
      "name": "RootNode (model correction matrix)"
    },
    {
      "children": [
        3,
        4,
        5,
        6,
        7,
        8,
        9,
        10
      ],
      "name": "model_05_color.obj.cleaner.materialmerger.gles"
    },
    {
      "mesh": 0,
      "name": ""
    },
    {
      "mesh": 1,
      "name": ""
    },
    {
      "mesh": 2,
      "name": ""
    },
    {
      "mesh": 3,
      "name": ""
    },
    {
      "mesh": 4,
      "name": ""
    },
    {
      "mesh": 5,
      "name": ""
    },
    {
      "mesh": 6,
      "name": ""
    },
    {
      "mesh": 7,
      "name": ""
    }
  ],
  "samplers": [
    {
      "magFilter": 9729,
      "minFilter": 9987,
      "wrapS": 10497,
      "wrapT": 10497
    }
  ],
  "scene": 0,
  "scenes": [
    {
      "name": "OSG_Scene",
      "nodes": [
        0
      ]
    }
  ],
  "textures": [
    {
      "sampler": 0,
      "source": 0
    }
  ]
}

